<svg width="64" height="64" viewBox="0 0 64 64" fill="none" xmlns="http://www.w3.org/2000/svg">
  <rect width="64" height="64" rx="16" fill="#05201c" />
  <g transform="translate(9.6 8) scale(1.12)">
    <defs>
      <radialGradient id="fav-body" gradientUnits="userSpaceOnUse" cx="15.5" cy="10.5" r="27">
        <stop offset="0%" stop-color="#f6fffd" />
        <stop offset="18%" stop-color="#aaf6ea" />
        <stop offset="42%" stop-color="#4fe3d0" />
        <stop offset="68%" stop-color="#16bfaa" />
        <stop offset="100%" stop-color="#067a6c" />
      </radialGradient>
      <radialGradient id="fav-crescent">
        <stop offset="0%" stop-color="#c2fff4" stop-opacity="0.95" />
        <stop offset="55%" stop-color="#7cf0de" stop-opacity="0.5" />
        <stop offset="100%" stop-color="#7cf0de" stop-opacity="0" />
      </radialGradient>
      <radialGradient id="fav-sheen">
        <stop offset="0%" stop-color="#ffffff" stop-opacity="0.85" />
        <stop offset="60%" stop-color="#ffffff" stop-opacity="0.28" />
        <stop offset="100%" stop-color="#ffffff" stop-opacity="0" />
      </radialGradient>
      <clipPath id="fav-clip">
        <path d="M20 4C27.73 4 34 10.27 34 18C34 25.73 27.73 32 20 32C12.27 32 6 25.73 6 18C6 10.27 12.27 4 20 4Z" />
        <path d="M13.6 30.4C12 33.2 10 35.2 6.9 36.4C8.7 32.9 9.1 29.8 8.6 26.4C9.9 28.3 11.6 29.7 13.6 30.4Z" />
      </clipPath>
    </defs>
    <path d="M13.6 30.4C12 33.2 10 35.2 6.9 36.4C8.7 32.9 9.1 29.8 8.6 26.4C9.9 28.3 11.6 29.7 13.6 30.4Z" fill="url(#fav-body)" />
    <path d="M20 4C27.73 4 34 10.27 34 18C34 25.73 27.73 32 20 32C12.27 32 6 25.73 6 18C6 10.27 12.27 4 20 4Z" fill="url(#fav-body)" />
    <g clip-path="url(#fav-clip)">
      <ellipse cx="20" cy="33.8" rx="12.5" ry="6.2" fill="url(#fav-crescent)" />
      <ellipse cx="13.8" cy="10" rx="6.8" ry="4.6" fill="url(#fav-sheen)" transform="rotate(-22 13.8 10)" />
      <ellipse cx="12.6" cy="8.6" rx="2.5" ry="1.5" fill="#ffffff" opacity="0.95" transform="rotate(-24 12.6 8.6)" />
      <circle cx="26.8" cy="7.8" r="1" fill="#ffffff" opacity="0.8" />
    </g>
    <ellipse cx="15.2" cy="16.9" rx="2.85" ry="3.45" fill="#0a1322" />
    <ellipse cx="24.8" cy="16.9" rx="2.85" ry="3.45" fill="#0a1322" />
    <circle cx="16.25" cy="15.35" r="1.05" fill="#ffffff" opacity="0.97" />
    <circle cx="25.85" cy="15.35" r="1.05" fill="#ffffff" opacity="0.97" />
    <path d="M17.4 21.9C18.15 24.35 21.85 24.35 22.6 21.9C21.1 22.95 18.9 22.95 17.4 21.9Z" fill="#0a1322" opacity="0.88" />
  </g>
</svg>
